<?xml version="1.0" encoding="utf-8"?>
<!-- Generator: Adobe Illustrator 25.0.0, SVG Export Plug-In . SVG Version: 6.00 Build 0)  -->
<svg version="1.1" xmlns="http://www.w3.org/2000/svg" xmlns:xlink="http://www.w3.org/1999/xlink" x="0px" y="0px"
	 viewBox="0 0 1800 755" style="enable-background:new 0 0 1800 755;" xml:space="preserve">
<style type="text/css">
	.st0{display:none;}
	.st1{display:inline;}
	.st2{fill:#E50914;}
	.st3{fill:none;}
</style>
<g id="Netflix_x5F_Logo_x5F_RGB" class="st0">
	<g id="Netflix_x5F_Logo_x5F_RGB_1_" class="st1">
		<g>
			<path class="st2" d="M1289.1,533.7c20.1,1.5,40.1,3.2,60.1,5V185.8h-60.1V533.7z M322.4,402.8l-78.3-216.9H187v383.4
				c20-2.8,40-5.6,60.1-8.2V352.5l69.6,199.9c21.9-2.5,43.8-4.9,65.8-7.2V185.8h-60.1V402.8z M440.2,539.7
				c55.4-5,111-9.2,166.9-12.4V468c-35.7,2.1-71.3,4.5-106.8,7.3v-89.6c23.3-0.2,54-0.9,81.2-0.6v-59.2c-21.7-0.1-56.6,0.3-81.2,0.6
				v-80.9h106.8v-59.7H440.2V539.7z M645.7,245.6h62.9v276.9c20-0.8,40-1.4,60.1-1.9v-275h62.9v-59.7H645.7V245.6z M870.1,518.9
				l60.1,0V382.2h81.5V323h-81.5v-77.4h107.7v-59.7H870.1V518.9z M1614,185.8h-66l-43.5,100.9l-39.1-100.9h-65l69.9,180.2
				L1394,542.8c21.1,2.1,42.1,4.3,63.2,6.6l44.4-102.8l43.9,113.3c22.9,2.9,45.7,6,68.5,9.3l0.1,0l-78.3-201.9L1614,185.8z
				 M1136.4,185.8h-60.1v336.1c54.6,1.9,109,4.6,163.2,8.2v-59.2c-34.3-2.3-68.6-4.2-103.1-5.8V185.8z"/>
		</g>
	</g>
</g>
<g id="Layer_2">
	<path id="SVGID_x5F_1_x5F_" class="st3" d="M187,569.2c206-29.2,444.7-50.1,710-50.3c268.2-0.2,509.3,20.8,717,50.2"/>
	<text>	<textPath  xlink:href="#SVGID_x5F_1_x5F_" startOffset="1.3463%">
<tspan  class="st2" style="font-family:'BebasNeue-Regular'; font-size:394px; letter-spacing:-4;">#WAITFORIT</tspan>	</textPath>
</text>
</g>
<g id="Layer_3">
</g>
</svg>
