<?xml version="1.0" encoding="utf-8"?>
<!-- Generator: Adobe Illustrator 25.0.0, SVG Export Plug-In . SVG Version: 6.00 Build 0)  -->
<svg version="1.1" xmlns="http://www.w3.org/2000/svg" xmlns:xlink="http://www.w3.org/1999/xlink" x="0px" y="0px"
	 viewBox="0 0 492 110" style="enable-background:new 0 0 492 110;" xml:space="preserve">
<style type="text/css">
	.st0{fill:#FF0000;}
	.st1{fill:#FFFFFF;}
	.st2{fill:#F7F7F7;}
	.st3{font-family:'Arial-Black';}
	.st4{font-size:107.2742px;}
</style>
<g id="Layer_1">
	<g id="Layer_1_1_" xmlns:v="https://vecta.io/nano">
		<path class="st0" d="M154.3,17.5c-1.8-6.7-7.1-12-13.8-13.8c-12.1-3.3-60.8-3.3-60.8-3.3S31,0.5,18.9,3.8
			c-6.7,1.8-12,7.1-13.8,13.8C1.4,39.1,0,71.9,5.2,92.5c1.8,6.7,7.1,12,13.8,13.8c12.1,3.3,60.8,3.3,60.8,3.3s48.7,0,60.8-3.3
			c6.7-1.8,12-7.1,13.8-13.8C158.3,71,159.5,38.2,154.3,17.5z"/>
		<path class="st1" d="M64.2,78.4L104.6,55L64.2,31.6V78.4z"/>
	</g>
	<g id="Layer_2_1_">
		<text transform="matrix(0.4115 0 0 1 170.9995 95.1055)" class="st2 st3 st4">#WAITFORIT </text>
	</g>
</g>
<g id="Layer_2">
</g>
</svg>
